<?xml version="1.0" encoding="UTF-8" standalone="no"?>
<!-- Created with Inkscape (http://www.inkscape.org/) -->

<svg
   width="1220mm"
   height="610mm"
   viewBox="0 0 1220 610"
   version="1.1"
   id="svg1"
   inkscape:version="1.3.2 (091e20ef0f, 2023-11-25, custom)"
   sodipodi:docname="paul.svg"
   xmlns:inkscape="http://www.inkscape.org/namespaces/inkscape"
   xmlns:sodipodi="http://sodipodi.sourceforge.net/DTD/sodipodi-0.dtd"
   xmlns:xlink="http://www.w3.org/1999/xlink"
   xmlns="http://www.w3.org/2000/svg"
   xmlns:svg="http://www.w3.org/2000/svg">
  <sodipodi:namedview
     id="namedview1"
     pagecolor="#ffffff"
     bordercolor="#000000"
     borderopacity="0.25"
     inkscape:showpageshadow="2"
     inkscape:pageopacity="0.0"
     inkscape:pagecheckerboard="0"
     inkscape:deskcolor="#d1d1d1"
     inkscape:document-units="mm"
     inkscape:zoom="1.4021606"
     inkscape:cx="433.61653"
     inkscape:cy="45.643845"
     inkscape:window-width="1920"
     inkscape:window-height="1008"
     inkscape:window-x="0"
     inkscape:window-y="0"
     inkscape:window-maximized="1"
     inkscape:current-layer="layer1"
     showguides="true">
    <sodipodi:guide
       position="18.798054,598.89208"
       orientation="0,-1"
       id="guide2"
       inkscape:locked="false" />
    <sodipodi:guide
       position="150.66925,609.43039"
       orientation="1,0"
       id="guide3"
       inkscape:locked="false" />
    <sodipodi:guide
       position="-16.98272,545.27699"
       orientation="0,-1"
       id="guide4"
       inkscape:locked="false" />
  </sodipodi:namedview>
  <defs
     id="defs1" />
  <g
     inkscape:label="Layer 1"
     inkscape:groupmode="layer"
     id="layer1">
    <g
       id="g34"
       style="fill:none;stroke:#000000;stroke-opacity:1;stroke-width:0.5;stroke-dasharray:none">
      <use
         x="0"
         y="0"
         xlink:href="#text2"
         id="use34"
         style="fill:none;stroke:#000000;stroke-opacity:1;stroke-width:0.5;stroke-dasharray:none" />
    </g>
    <text
       xml:space="preserve"
       style="font-size:3.175px;fill:#000000;stroke-width:0.264583"
       x="3.2091205"
       y="3.7866457"
       id="text1"><tspan
         id="tspan1"
         style="stroke-width:0.264583"
         sodipodi:role="line"></tspan></text>
    <path
       style="font-size:7.05556px;font-family:'Droid Sans Mono';-inkscape-font-specification:'Droid Sans Mono, Normal';stroke-width:0.5;fill:none;stroke:#000000;stroke-opacity:1;stroke-dasharray:none"
       d="m 139.55386,29.627321 h 5.77195 q 0,-9.198405 -2.73991,-9.198405 -2.77014,0 -3.03204,9.198405 z"
       id="path34" />
    <path
       style="font-size:7.05556px;font-family:'Droid Sans Mono';-inkscape-font-specification:'Droid Sans Mono, Normal';stroke-width:0.5;fill:none;stroke:#000000;stroke-opacity:1;stroke-dasharray:none"
       d="m 147.31024,34.090807 h -7.79667 q 0.0806,11.309514 3.46518,11.309514 1.96428,0 3.7271,-2.292061 v 4.825392 q -1.67216,2.261903 -3.66666,2.261903 -2.46794,0 -3.9487,-4.493647 -1.48076,-4.523805 -1.48076,-12.425386 0,-8.022215 1.35988,-12.696814 1.36996,-4.704758 3.65658,-4.704758 2.13552,0 3.40475,4.041266 1.2793,4.041267 1.2793,10.766658 z"
       id="path33" />
    <path
       style="font-size:7.05556px;font-family:'Droid Sans Mono';-inkscape-font-specification:'Droid Sans Mono, Normal';stroke-width:0.5;fill:none;stroke:#000000;stroke-opacity:1;stroke-dasharray:none"
       d="m 132.84509,34.332078 v -1.236506 q 0,-6.846026 -0.70513,-9.741261 -0.69505,-2.925395 -2.22618,-2.925395 -2.73992,0 -2.73992,12.726973 0,12.485704 2.76006,12.485704 1.53113,0 2.19597,-2.653966 0.6749,-2.684125 0.7152,-8.655549 z"
       id="path32" />
    <path
       style="font-size:7.05556px;font-family:'Droid Sans Mono';-inkscape-font-specification:'Droid Sans Mono, Normal';stroke-width:0.5;fill:none;stroke:#000000;stroke-opacity:1;stroke-dasharray:none"
       d="m 132.92569,45.159053 h -0.0806 q -1.13828,5.036504 -3.24358,5.036504 -2.02472,0 -3.18314,-4.493647 -1.14835,-4.523806 -1.14835,-12.606338 0,-8.142851 1.15842,-12.666656 1.15842,-4.553964 3.17307,-4.553964 2.07508,0 3.24358,4.825393 h 0.12087 q -0.12087,-3.890473 -0.12087,-4.885711 V 2.6654394 h 1.83332 V 49.592383 h -1.48076 z"
       id="path31" />
    <path
       style="font-size:7.05556px;font-family:'Droid Sans Mono';-inkscape-font-specification:'Droid Sans Mono, Normal';stroke-width:0.5;fill:none;stroke:#000000;stroke-opacity:1;stroke-dasharray:none"
       d="m 120.03197,33.397159 -1.63186,0.211113 q -1.97436,0.241272 -2.80036,1.86984 -0.826,1.598411 -0.826,4.915869 0,5.368249 2.01464,5.368249 1.48076,0 2.35714,-2.442855 0.88644,-2.473014 0.88644,-6.936502 z"
       id="path30" />
    <path
       style="font-size:7.05556px;font-family:'Droid Sans Mono';-inkscape-font-specification:'Droid Sans Mono, Normal';stroke-width:0.5;fill:none;stroke:#000000;stroke-opacity:1;stroke-dasharray:none"
       d="m 120.52556,49.592383 -0.37271,-4.584123 h -0.0806 q -0.77563,2.925394 -1.59157,4.071425 -0.81593,1.115872 -2.1053,1.115872 -1.64193,0 -2.57874,-2.593649 -0.92674,-2.593648 -0.92674,-7.268247 0,-10.01269 5.13734,-10.495229 l 2.04487,-0.211114 V 27.54637 q 0,-7.117454 -2.45787,-7.117454 -1.48076,0 -3.30401,2.473014 l -0.63462,-4.131743 q 1.97435,-2.895235 3.85804,-2.895235 2.28662,0 3.30402,2.623807 1.02747,2.623807 1.02747,8.414279 v 22.679345 z"
       id="path29" />
    <path
       style="font-size:7.05556px;font-family:'Droid Sans Mono';-inkscape-font-specification:'Droid Sans Mono, Normal';stroke-width:0.5;fill:none;stroke:#000000;stroke-opacity:1;stroke-dasharray:none"
       d="m 108.41755,49.592383 -0.27199,-4.43333 h -0.10073 q -1.05768,5.036504 -3.36445,5.036504 -3.93863,0 -3.93863,-12.093641 v -21.62379 h 1.83332 V 37.80033 q 0,7.841263 2.37728,7.841263 1.62179,0 2.36721,-2.774601 0.74542,-2.80476 0.74542,-9.198405 V 16.478126 h 1.83333 v 33.114257 z"
       id="path28" />
    <path
       style="font-size:7.05556px;font-family:'Droid Sans Mono';-inkscape-font-specification:'Droid Sans Mono, Normal';stroke-width:0.5;fill:none;stroke:#000000;stroke-opacity:1;stroke-dasharray:none"
       d="m 92.955153,45.279688 q 1.742668,0 2.548526,-4.373012 0.815929,-4.373012 0.815929,-13.420624 0,-9.138087 -0.826004,-13.420622 -0.815932,-4.3126949 -2.518305,-4.3126949 -3.394676,0 -3.394676,17.7333169 0,17.793636 3.37453,17.793636 z"
       id="path27" />
    <path
       style="font-size:7.05556px;font-family:'Droid Sans Mono';-inkscape-font-specification:'Droid Sans Mono, Normal';stroke-width:0.5;fill:none;stroke:#000000;stroke-opacity:1;stroke-dasharray:none"
       d="m 95.433166,48.416194 q 0.856223,5.428566 2.810428,9.379356 l -1.21886,4.282536 q -2.37728,-5.157138 -3.304017,-12.063482 -0.362634,0.180956 -0.765564,0.180956 -5.358954,0 -5.358954,-22.769822 0,-22.6190266 5.3791,-22.6190266 2.578745,0 3.948703,5.9111056 1.380033,5.880948 1.380033,16.768239 0,15.863478 -2.870869,20.930138 z"
       id="path26" />
    <path
       style="font-size:7.05556px;font-family:'Droid Sans Mono';-inkscape-font-specification:'Droid Sans Mono, Normal';stroke-width:0.5;fill:none;stroke:#000000;stroke-opacity:1;stroke-dasharray:none"
       d="m 85.057743,17.654315 -0.62454,4.765075 q -1.510981,-1.719045 -2.699623,-1.719045 -3.737164,0 -3.737164,12.455544 0,12.244434 3.636432,12.244434 1.581495,0 3.233503,-1.86984 v 4.825393 q -1.349811,1.839681 -3.314089,1.839681 -2.588818,0 -4.019216,-4.373012 -1.430398,-4.403171 -1.430398,-12.606339 0,-8.474595 1.46062,-12.907925 1.460616,-4.433329 4.109872,-4.433329 1.793035,0 3.384603,1.779363 z"
       id="path25" />
    <path
       style="font-size:7.05556px;font-family:'Droid Sans Mono';-inkscape-font-specification:'Droid Sans Mono, Normal';stroke-width:0.5;fill:none;stroke:#000000;stroke-opacity:1;stroke-dasharray:none"
       d="M 67.349017,49.592383 64.548662,10.989242 h -0.08058 q 0.181312,8.022215 0.181312,12.244434 V 49.592383 H 63.128337 V 5.5003577 h 2.488086 l 2.498158,35.9491753 h 0.06044 L 70.693323,5.5003577 h 2.538453 V 49.592383 H 71.690573 V 22.841612 q 0,-3.076188 0.141021,-11.792053 h -0.08058 l -2.850718,38.542824 z"
       id="path24" />
    <path
       style="font-size:7.05556px;font-family:'Droid Sans Mono';-inkscape-font-specification:'Droid Sans Mono, Normal';stroke-width:0.5;fill:none;stroke:#000000;stroke-opacity:1;stroke-dasharray:none"
       d="M 42.58904,6.9781343 39.889414,6.3448011 V 2.6654394 H 44.43244 V 45.279688 l 3.545773,0.603175 v 3.70952 h -8.854362 v -3.709521 l 3.465189,-0.603175 z"
       id="path23" />
    <path
       style="font-size:7.05556px;font-family:'Droid Sans Mono';-inkscape-font-specification:'Droid Sans Mono, Normal';stroke-width:0.5;fill:none;stroke:#000000;stroke-opacity:1;stroke-dasharray:none"
       d="m 34.137607,49.592383 -0.271984,-4.43333 h -0.10073 q -1.057687,5.036504 -3.364457,5.036504 -3.938629,0 -3.938629,-12.093641 v -21.62379 h 1.833327 V 37.80033 q 0,7.841263 2.37728,7.841263 1.62179,0 2.367207,-2.774601 0.745418,-2.80476 0.745418,-9.198405 V 16.478126 h 1.833327 v 33.114257 z"
       id="path22" />
    <path
       style="font-size:7.05556px;font-family:'Droid Sans Mono';-inkscape-font-specification:'Droid Sans Mono, Normal';stroke-width:0.5;fill:none;stroke:#000000;stroke-opacity:1;stroke-dasharray:none"
       d="m 20.992051,33.397159 -1.631862,0.211111 q -1.974352,0.241271 -2.800356,1.869839 -0.826004,1.598411 -0.826004,4.915869 0,5.36825 2.014644,5.36825 1.480764,0 2.357134,-2.442856 0.886444,-2.473014 0.886444,-6.936501 z"
       id="path21" />
    <path
       style="font-size:7.05556px;font-family:'Droid Sans Mono';-inkscape-font-specification:'Droid Sans Mono, Normal';stroke-width:0.5;fill:none;stroke:#000000;stroke-opacity:1;stroke-dasharray:none"
       d="M 21.485639,49.592383 21.11293,45.00826 h -0.08059 q -0.775638,2.925394 -1.591569,4.071425 -0.815931,1.115872 -2.105304,1.115872 -1.641935,0 -2.578745,-2.593649 -0.926736,-2.593648 -0.926736,-7.268247 0,-10.01269 5.137343,-10.495229 l 2.044864,-0.211111 V 27.54637 q 0,-7.117454 -2.457866,-7.117454 -1.480764,0 -3.304017,2.473014 l -0.634613,-4.131743 q 1.974352,-2.895235 3.858044,-2.895235 2.286622,0 3.304017,2.623807 1.027469,2.623807 1.027469,8.414279 v 22.679345 z"
       id="path20" />
    <path
       style="font-size:7.05556px;font-family:'Droid Sans Mono';-inkscape-font-specification:'Droid Sans Mono, Normal';stroke-width:0.5;stroke:#000000;stroke-opacity:1;fill:none;stroke-dasharray:none"
       d="M 3.7366212,27.667005 H 5.449069 q 1.9944982,0 2.8507221,-2.171427 0.8662971,-2.171426 0.8662971,-6.785708 0,-8.414279 -3.4047494,-8.414279 H 3.7366212 Z"
       id="path19" />
    <path
       style="font-size:7.05556px;font-family:'Droid Sans Mono';-inkscape-font-specification:'Droid Sans Mono, Normal';stroke-width:0.5;stroke:#000000;fill:none;stroke-opacity:1;stroke-dasharray:none"
       d="M 3.7366212,32.432081 V 49.592383 H 1.8630018 V 5.5003577 h 4.0695819 q 5.1776363,0 5.1776363,12.9079253 0,6.604756 -1.400178,10.314277 -1.3901045,3.709521 -4.0494352,3.709521 z"
       id="text2" />
  </g>
</svg>
